<?xml version="1.0" encoding="UTF-8"?>
<svg id="Layer_2" xmlns="http://www.w3.org/2000/svg" xmlns:xlink="http://www.w3.org/1999/xlink" version="1.1" viewBox="0 0 200.4 141.4">
  <!-- Generator: Adobe Illustrator 29.3.1, SVG Export Plug-In . SVG Version: 2.1.0 Build 151)  -->
  <defs>
    <style>
      .st0 {
        fill: #1c1b1a;
      }
    </style>
  </defs>
  <g>
    <path class="st0" d="M95.3,18.5c-.2,1.1-1.7,1.3-1.9,0-.3-2,0-7.7.5-9.7.7-2.6,3-3.4,5.4-2.6,3.3,1.1,2.4,3.7,3.1,6.4-2.2.9-2.7,2.7-1.3,4.7-.9.7-1.6,1.7-1.9,2.8l-1.7,12.3c0,.2,0,.2.2.3,0,0,1.7,1.1,1.8,1.1.5.2.9,0,1.4,0l.5-5.5c-1.4.1-.5-1.2-.6-2.1-.8.1-1.2-.2-1.3-1s.2-3.4.3-4.3c.6-3.6,3.9-5.1,5.7-1.4,1.2-1.5,4.2-4.4,4.6-6.2,0-.1.1-.7-.1-.7-1.1,2.1-2.4,4.1-4.1,5.6l-1.2-1.4c1.4-1.9.7-3.6-1.3-4.5.3-2.7.5-5.6,3.5-6.4,2.4-.7,4.7.5,5.2,3,.2,1,.4,4.2.1,5.1-.2.7-1.2,1.5-1.3,2.2,0,.6,0,2.3.2,3,.2,2.4.9,4.7,1.1,7.1h-1.2c0,.1-.2.3-.2.3v5.9c.7.2,1.2,1.1,1.6,1.3.6.3,1.6-.1,2.2.2-.5-1.8.6-3.6.9-5.3.2-1.4.1-2.5.2-3.8.2-3.5.6-7,.6-10.5-.3.3-.6,1.2-.7,1.6-.2.9-.3,1.9-.4,2.8-.1,1.2.3,2.8-1.7,2.2-.2-.1-.2-.4-.3-.6,0-1,.3-3.8.6-4.9.3-1.4,1.4-4.7,2.3-5.7,1.4-1.5,3.8-1.5,5.1,0s.6,3.3,1,4.8c.3,1.2,2.5,3.8,2.6,4.8,0,.2-.2.5-.4.7-1.2,1.1-2-1.9-3-2.2,0,2.5.3,4.4.7,6.8.5,2.9-.1,5.6.2,8.5.2.2.5.3.7.5.5.5,0,.8,1.4.6,0-2.1.9-3.9,1.2-5.9.3-1.6.5-4.1.4-5.7s-.7-3.5-.8-5.1c-.1-2.6,1.5-7.4,4.9-6.1,2.1.8,1.1,4.5,1.5,6.2.3,1.1,2.8,2.2,2.3,3.7-.4,1.4-.5,2.7-.6,4.2-.1,3.2.3,6.5.2,9.7l1.1.2c.3-2.5,1.5-5.1,1.1-7.6,0-.7-.5-1.2-.5-2.1s.3-3.3.6-4.4c.6-2.1,3.8-6.5,5.4-2.7.7,1.7-.3,2.6,0,4,.5,1.8,2.5,2.1,2.8,3.8v11.3c-4.2,4-8.8,7.6-13.4,11.2l-2.6,1.6h6.8c4,0,9.1,4.6,12.8,5.8,2.6.8,5.5.8,8.1,1.3,4.5,1,3.2,4.9-.5,5.7-4.5,1-9.6-1.9-14.2-1.6l7.5,2c4,1.2,11.6,1.4,10.9-4.6.8,0,1.6-.3,2.4-.6,2.7-1.2,8.8-5.2,11.4-5,1.9.2,3,1.6,2.1,3.4-3.1,2.3-6.2,4.7-9.3,6.9-2.8,2-5.1,3.9-8.4,4.9-4,1.3-8.2,2.1-12.3,3.3-8.7-.8-17.7-8.8-26.6-5.6-6.2,2.2-7,5.7-14.6,4.9-11.7-1.2-23.3-7.7-33.9-12.4-14-6.2-27.7-10.5-43.1-11.5-.9,0-4,.5-3-1.2.8-1.3,10.1-4.2,12-4.8l.2-1.2-.6-.4c-.1.7-.2,1.3-1,1.6-.7.2-3,.7-2.9-.5,0-1,1.9-.6,2.1-.9.1-1.4-.8-1.6,0-3.1.3-.7,2.8-2.7,3.5-2.9,2.8-.7,1.8,1.8,2.2,3,.2.8,2.6,2,1.3,2.9-1.1.7-1.9-1.5-2.6-2.1h-.4c0,0-.7.8-.7.8.8.7,1.1,1.5.4,2.5l7.1-1.8c-1-1.6,1.1-3.2,1.3-4.8.2-1.3,0-2.9.2-4.2-.5.3-.3,1.7-.8,2-1.5.9-.8-2-.5-2.7.2-.4,2.3-2.7,2.8-2.9.3-.1.6-.2,1-.1,1.5.2.9,1.6,1.1,2.8.1.8,1.3,2.4.9,2.9-.7.6-.8,0-1.3-.4,0,2,1.2,3.8.8,5.8.4.5,3.6-.4,4.3-.5,0-.2-.3-.3-.3-.6-.2-1,1.6-4.6,1.6-6.2v-5.4c-.7.4-.7,2.1-1.1,2.5-.5.5-1.3,0-1.3-.6,0-.3.7-2.3.9-2.8.7-1.6,2.2-4.5,4.4-3.2,1.7,1.1.8,2.9,1.2,4.3.2.7,2,1.8,2,2.3-.6,1.5-1.4,0-2.3-.2,0,1.8.6,3.4.9,5.1.5,2.7-.5,4.3,3.4,3.4,0-.4-.2-.8-.2-1.2,0-1.4,1.2-4,1.5-5.6.7-3.2.5-5.9.4-9.2-.2,0-.3.8-.3.9v2.9c0,.1-.3.6-.3.9-1.1.2-1.2-.2-1.3-1.2-.1-1.7.6-5.6,1.4-7.1.9-1.6,3.4-1.6,4.5-.3s.8,3.2,1.2,4.8c.2.9,2.1,4,.3,4.1-1.1,0-.5-.7-1.2-.8l.8,9.5c.7,1.3,2,1.3,3.3,1.1,0,0-.3-.4-.3-.6-.2-1.2,1.3-6.1,1.5-7.7.5-3,.6-5.7.4-8.7-.2,0-.3.7-.3.7v3.9c0,.5-1.4,1.7-1.6,0-.3-2.9.2-6.3,1.6-8.9,1.3-2.3,4.2-2.6,5.3,0,.6,1.4,1.4,7.2,1.5,8.8,0,1.5-1.3,1.2-1.9.2l1,10.7,1.5,1.2h2c0-.1.5-13.1.5-13.1,0,0-1.4.9-1.7-.3-.2-.6,0-3.5,0-4.3,0-1.5.6-5,1.5-6.1,1.2-1.4,3-1.7,4.5-.6,1.6,1.2,1.3,3.4,1.7,5.1.3,1.3,1.4,4.5,1.2,5.5,0,.4-.6.9-1,.7-.1,0-.7-.7-.8-.4l.2,11.7c0,.2,1.4,1.4,1.5,1.4h2.7c-.2-.6-.2-1.2-.2-1.8.2-5.4,1.2-10.7.7-16.1l-.3-2.8c-.2,1.6.3,3.7,0,5.2h0ZM85.7,19c.1-1.2,0-2.7,0-3.9h-.2c.2.3-.2.9-.2,1v3.5s-.2.2-.2.2h.3c-.1-.3.1-.7.2-.9ZM109.2,18.6c-.3,0-.4.1-.6.3-1,1-1.7,2.3-3.1,2.8l1.2,6.6c-1.6.2-1.1,0-1.1,1.1,0,.8-.2,3.1.3,3.5.3.2,2.1,1.1,2.4.9l-.2-7.2h-1.2c0-.1-.7-4.4-.7-4.4,1.1-1,2.7-2,2.9-3.6h0ZM131.3,20.2h-.3c0,.8-.6,2-.6,2.6,0,1.2,1.3,3.3,1.4,5,0,1.2-.5,5.9,0,6.5.1.2.9.4.9,1h.5c0,0-.3-13-.3-13l-1.4-2.2h0ZM88.8,34.2l-.3-9.7-.3-.6c0,3.3-.8,6.5-.6,9.8.3.5.7.5,1.2.5h0ZM118.9,24.3c-.1.8,0,1.9,0,2.7l-1.8,5.6,1.1,1.6h1.8c-.3-.7,0-1.3,0-2.1,0-2.9-.1-5.5-.8-8.3-.2,0-.3.3-.3.4h0ZM143.5,36.7v-9.4c-.9-.9-2.2-1.4-2.7-2.6l-.8,2.5,1.3,4.4.2,5,2.1.2h0ZM78.6,25.2c-.5,0-.3.1-.3.4-.7,2.7-1.2,5.5-1.9,8.2l1.1,1h1.8c0,0-.8-9.6-.8-9.6ZM129.2,35.1c-.3-2.4.6-5.3,0-7.5,0-.1-.2-.6-.4-.6l-1.7,7c.9.4,1.1,1.5,2.2,1.2ZM69.2,35.5c-.3-2.5-.2-5.1-.7-7.6,0-.2,0-.6-.3-.6l-1.9,7.8c.7,1.1,1.8.5,2.9.4ZM103.9,28.6h-.5c0,1.2-.7,3.5-.6,4.6,0,.1.4.5.5.6,1.1.7.6-.5.6-1,0-1.4,0-2.7,0-4.1h0ZM58.1,31.1c.2,1.3-1.9,4.8-1.8,5.7,0,.2,0,.3.3.4.3,0,2.7-.3,2.8-.5-.4-1.8,0-4.1-1.2-5.5h0ZM139,35.9c0-1.1,0-2.2,0-3.4s-.4-1.3-.6-1.4c-.2,1.7-.7,3.3-1.3,4.8l1.9.3c.4-.2,0-.3,0-.4h0ZM48.9,38.8c.2-.2,0-4.2-.8-4.5,0,1.7-1.3,2.9-1.8,4.4.8.7,1.6.1,2.6,0ZM168.9,52.6c0,1.1-.4,1.4-1.1,2-1.1.8-5.2,2.9-6.5,3.4-.4.1-1.4.5-1.8.4-.1,0-1.2-.9-1.6-1-2.5-1-6.3-.8-9-1.6-1.9-.5-3.7-1.7-5.3-2.7,0-.5,1.6-.8,2-1,.8-.4,1.9-1.5,2.6-1.6,2.1-.4,5.4.7,7.5.3.4,0,1.3-.9,1.9-1.2,2-.8,8-1,9.9,0,.4.2.5.5.9.7,0-4.8,7.4-4.1,5.8.9-.7,2.2-3.5,3.1-5.1,1.4h0ZM163.7,53c-.9.3-1.6.8-2.5,1.1-.7.2-1.3.2-2,.4-.2,0-.5,0-.6.3,1.8,0,3.8-.5,5.1-1.8h0ZM152.7,53.6c-1.2-.1-2.4-.4-3.7-.3l3,.5.7-.2ZM105.9,1.7c-1.2,3.7,3.3,5,4.5,2.1.8-1.7-.2-4-2.3-3.8-.8,0-2,.8-2.2,1.6h0ZM98.4.3c-1.4,0-2.6,1.1-2.6,2.5s1.1,2.5,2.6,2.5,2.6-1.1,2.6-2.5-1.1-2.5-2.6-2.5ZM79.7,5.9c-1.4,0-2.7.8-3.9,1.3l1,.2c0,0-.5,1.9,0,2.2.4,0,.2-1.8.2-2.2h.5c-1.9,5.7,6.1,4.1,2.9-.6l1.6-.6c-.8,0-1.6-.4-2.3-.5h0ZM120.6,8c2.3-1.3,1-4.7-1.5-4.3-3.3.6-1.6,6.1,1.5,4.3ZM87.7,8.8c3.6.6,3.8-5.2,0-4.4-2.2.4-2.3,4.1,0,4.4ZM131,7.2c-1.1,0-2.1.9-2.1,2.1s.9,2.1,2.1,2.1,2.1-.9,2.1-2.1-.9-2.1-2.1-2.1ZM69.4,14.6c2-.5,1.7-4.4-.9-4.1-2.7.3-2.1,4.8.9,4.1ZM142.9,14.4c-1.1,0-1.9.9-1.9,2s.9,2,1.9,2,1.9-.9,1.9-2-.9-1.9-1.9-2ZM60,19.6c1.7-1.8-.8-4.7-2.7-2.9-1.8,1.7.9,4.8,2.7,2.9ZM49.4,22.7c-1,0-1.9.8-1.9,1.9s.8,1.9,1.9,1.9,1.9-.8,1.9-1.9-.8-1.9-1.9-1.9ZM102.9,13.5c-1,0-1.8.8-1.8,1.8s.8,1.8,1.8,1.8,1.8-.8,1.8-1.8-.8-1.8-1.8-1.8ZM40.1,30.6c-1,0-1.8.8-1.8,1.8s.8,1.8,1.8,1.8,1.8-.8,1.8-1.8-.8-1.8-1.8-1.8Z"/>
    <path class="st0" d="M95.3,18.5c-.2,1.1-1.7,1.3-1.9,0-.3-2.1,0-7.7.5-9.7.7-2.6,3-3.4,5.4-2.6,3.3,1,2.4,3.7,3.1,6.4-2.2.9-2.7,2.7-1.3,4.7-.9.7-1.6,1.7-1.9,2.8l-1.7,12.3c0,.2,0,.2.2.3,0,0,1.7,1.1,1.8,1.1.5.2.9,0,1.4,0l.5-5.5c-1.4.1-.5-1.2-.6-2.1-.8.1-1.2-.2-1.3-1s.2-3.4.3-4.3c.6-3.6,3.9-5.1,5.7-1.4,1.2-1.5,4.2-4.4,4.6-6.2,0-.1.1-.7-.1-.7-1.1,2-2.4,4-4.1,5.6l-1.2-1.4c1.4-1.8.7-3.6-1.3-4.5.3-2.7.5-5.6,3.5-6.4,2.4-.7,4.7.5,5.2,3,.2,1,.4,4.2.1,5.1-.2.7-1.2,1.5-1.3,2.2,0,.6,0,2.3.2,3,.2,2.4.9,4.7,1.1,7.1h-1.2c0,.1-.2.3-.2.3v5.9c.7.2,1.2,1.1,1.6,1.3.6.3,1.6-.1,2.2.2-.5-1.8.6-3.6.9-5.3.2-1.4.1-2.5.2-3.8.2-3.5.6-7,.6-10.5-.3.3-.6,1.2-.7,1.6-.2.9-.3,1.9-.4,2.8-.1,1.2.3,2.8-1.7,2.2-.2-.1-.2-.4-.3-.6,0-1,.3-3.8.6-4.9.3-1.4,1.4-4.7,2.3-5.7,1.4-1.5,3.8-1.5,5.1,0s.6,3.3,1,4.8c.3,1.2,2.5,3.8,2.6,4.8,0,.2-.2.5-.4.7-1.2,1.1-2-1.9-3-2.2,0,2.5.3,4.5.7,6.8.5,2.9-.1,5.6.2,8.5.2.2.5.3.7.5.5.5,0,.8,1.4.6,0-2.1.9-3.9,1.2-5.9.3-1.6.5-4.1.4-5.7-.1-1.7-.7-3.4-.8-5.1-.1-2.6,1.5-7.4,4.9-6,2.1.8,1.1,4.5,1.5,6.2.3,1.1,2.8,2.2,2.3,3.7-.4,1.4-.5,2.7-.6,4.2-.1,3.2.3,6.5.2,9.7l1.1.2c.3-2.5,1.5-5.1,1.1-7.6,0-.7-.5-1.2-.5-2.1s.3-3.3.6-4.4c.6-2.1,3.8-6.5,5.4-2.7.7,1.7-.3,2.6,0,4,.5,1.8,2.5,2.1,2.8,3.8v11.3c-4.2,4-8.8,7.6-13.4,11.2l-2.6,1.6h6.8c4,0,9.1,4.6,12.8,5.8,2.6.8,5.5.8,8.1,1.3,4.5,1,3.2,4.9-.5,5.7-4.5,1-9.6-1.9-14.2-1.6l7.5,2c4,1.2,11.6,1.4,10.9-4.6.8,0,1.6-.3,2.4-.6,2.7-1.2,8.8-5.2,11.4-5,1.9.2,3,1.6,2.1,3.4-3.1,2.3-6.2,4.7-9.3,6.9-2.8,2-5.1,3.9-8.4,4.9-4,1.3-8.2,2.1-12.3,3.3-8.7-.8-17.7-8.8-26.6-5.6-6.2,2.2-7,5.7-14.6,4.9-11.7-1.2-23.3-7.7-33.9-12.4-14-6.2-27.7-10.5-43.1-11.5-.9,0-4,.5-3-1.2.8-1.3,10.1-4.2,12-4.8l.2-1.2-.6-.4c-.1.7-.2,1.3-1,1.6-.7.2-3,.7-2.9-.5,0-1,1.9-.6,2.1-.9.1-1.4-.8-1.6,0-3.1.3-.7,2.8-2.7,3.5-2.9,2.8-.7,1.8,1.8,2.2,3,.2.8,2.6,2,1.3,2.9-1.1.7-1.9-1.5-2.6-2.1h-.4c0,0-.7.8-.7.8.8.7,1.1,1.5.4,2.5l7.1-1.8c-1-1.6,1.1-3.2,1.3-4.8.2-1.3,0-2.9.2-4.2-.5.3-.3,1.7-.8,2-1.5.9-.8-2-.5-2.7.2-.4,2.3-2.7,2.8-2.9.3-.1.6-.2,1-.1,1.5.2.9,1.6,1.1,2.8.1.8,1.3,2.4.9,2.9-.7.6-.8,0-1.3-.4,0,2,1.2,3.8.8,5.8.4.5,3.6-.4,4.3-.5,0-.2-.3-.3-.3-.6-.2-1,1.6-4.6,1.6-6.2v-5.4c-.7.4-.7,2.1-1.1,2.5-.5.5-1.3,0-1.3-.6,0-.3.7-2.3.9-2.8.7-1.6,2.2-4.5,4.4-3.2,1.7,1.1.8,2.9,1.2,4.3.2.7,2,1.8,2,2.3-.6,1.5-1.4,0-2.3-.2,0,1.8.6,3.4.9,5.1.5,2.7-.5,4.3,3.4,3.4,0-.4-.2-.8-.2-1.2,0-1.4,1.2-4,1.5-5.6.7-3.2.5-5.9.4-9.2-.2,0-.3.8-.3.9v2.9c0,.1-.3.6-.3.9-1.1.2-1.2-.2-1.3-1.2-.1-1.7.6-5.6,1.4-7.1.9-1.6,3.4-1.7,4.5-.3s.8,3.2,1.2,4.8c.2.9,2.1,4,.3,4.1-1.1,0-.5-.7-1.2-.8l.8,9.5c.7,1.3,2,1.3,3.3,1.1,0,0-.3-.4-.3-.6-.2-1.2,1.3-6.1,1.5-7.7.5-3,.6-5.7.4-8.7-.2,0-.3.7-.3.7v3.9c0,.5-1.4,1.7-1.6,0-.3-2.9.2-6.3,1.6-8.9,1.3-2.3,4.2-2.6,5.3,0,.6,1.4,1.4,7.2,1.5,8.8,0,1.5-1.3,1.2-1.9.2l1,10.7,1.5,1.2h2c0-.1.5-13.1.5-13.1,0,0-1.4.9-1.7-.3-.2-.6,0-3.5,0-4.3,0-1.5.6-5,1.5-6.1,1.2-1.5,3-1.7,4.5-.6,1.6,1.2,1.3,3.4,1.7,5.1.3,1.3,1.4,4.5,1.2,5.5,0,.4-.6.8-1,.7-.1,0-.7-.7-.8-.4l.2,11.7c0,.2,1.4,1.4,1.5,1.4h2.7c-.2-.6-.2-1.2-.2-1.8.2-5.4,1.2-10.7.7-16.1l-.3-2.8c-.2,1.6.3,3.7,0,5.2h0ZM85.7,19c.1-1.2,0-2.7,0-3.9h-.2c.2.3-.2.9-.2,1v3.5s-.2.2-.2.2h.3c-.1-.3.1-.7.2-.9ZM109.2,18.6c-.3,0-.4.1-.6.3-1,1-1.7,2.3-3.1,2.8l1.2,6.6c-1.6.2-1.1,0-1.1,1.1,0,.8-.2,3.1.3,3.5.3.2,2.1,1.1,2.4.9l-.2-7.2h-1.2c0-.1-.7-4.4-.7-4.4,1.1-1,2.7-2,2.9-3.6h0ZM131.3,20.2h-.3c0,.8-.6,2-.6,2.6,0,1.2,1.3,3.3,1.4,5,0,1.2-.5,5.9,0,6.5.1.2.9.4.9,1h.5c0,0-.3-13-.3-13l-1.4-2.2h0ZM88.8,34.2l-.3-9.7-.3-.6c0,3.3-.8,6.5-.6,9.8.3.5.7.5,1.2.5h0ZM118.9,24.3c-.1.8,0,1.9,0,2.7l-1.8,5.6,1.1,1.6h1.8c-.3-.7,0-1.3,0-2.1,0-2.9-.1-5.5-.8-8.3-.2,0-.3.3-.3.4h0ZM143.5,36.7v-9.4c-.9-.9-2.2-1.4-2.7-2.6l-.8,2.5,1.3,4.4.2,5,2.1.2h0ZM78.6,25.2c-.5,0-.3.1-.3.4-.7,2.7-1.2,5.5-1.9,8.2l1.1,1h1.8c0,0-.8-9.6-.8-9.6ZM129.2,35.1c-.3-2.4.6-5.3,0-7.5,0-.1-.2-.6-.4-.6l-1.7,7c.9.4,1.1,1.5,2.2,1.2ZM69.2,35.5c-.3-2.5-.2-5.1-.7-7.6,0-.2,0-.6-.3-.6l-1.9,7.8c.7,1.1,1.8.5,2.9.4ZM103.9,28.6h-.5c0,1.2-.7,3.5-.6,4.6,0,.1.4.5.5.6,1.1.7.6-.5.6-1,0-1.4,0-2.7,0-4.1h0ZM58.1,31.1c.2,1.3-1.9,4.8-1.8,5.7,0,.2,0,.3.3.4.3,0,2.7-.3,2.8-.5-.4-1.8,0-4.1-1.2-5.5h0ZM139,35.9c0-1.1,0-2.2,0-3.4s-.4-1.3-.6-1.4c-.2,1.7-.7,3.3-1.3,4.8l1.9.3c.4-.2,0-.3,0-.4h0ZM48.9,38.8c.2-.2,0-4.2-.8-4.5,0,1.7-1.3,2.9-1.8,4.4.8.7,1.6.1,2.6,0ZM168.9,52.6c0,1.1-.4,1.4-1.1,2-1.1.8-5.2,2.9-6.5,3.4-.4.1-1.4.5-1.8.4-.1,0-1.2-.9-1.6-1-2.5-1-6.3-.8-9-1.6-1.9-.5-3.7-1.7-5.3-2.7,0-.5,1.6-.8,2-1,.8-.4,1.9-1.5,2.6-1.6,2.1-.4,5.4.7,7.5.3.4,0,1.3-.9,1.9-1.2,2-.8,8-1,9.9,0,.4.2.5.5.9.7,0-4.8,7.4-4.1,5.8.9-.7,2.2-3.5,3.1-5.1,1.4h0ZM163.7,53c-.9.3-1.6.8-2.5,1.1-.7.2-1.3.2-2,.4-.2,0-.5,0-.6.3,1.8,0,3.8-.5,5.1-1.8h0ZM152.7,53.6c-1.2-.1-2.4-.4-3.7-.3l3,.5.7-.2ZM105.9,1.7c-1.2,3.7,3.3,5,4.5,2.1.8-1.7-.2-4-2.3-3.8-.8,0-2,.8-2.2,1.6h0ZM98.4.3c-1.4,0-2.6,1.1-2.6,2.5s1.1,2.5,2.6,2.5,2.6-1.1,2.6-2.5-1.1-2.5-2.6-2.5ZM79.7,5.9c-1.4-.1-2.7.8-3.9,1.3l1,.2c0,0-.5,1.9,0,2.2.4,0,.2-1.8.2-2.2h.5c-1.9,5.7,6.1,4.1,2.9-.6l1.6-.6c-.8,0-1.6-.4-2.3-.5h0ZM120.6,8c2.3-1.4,1-4.7-1.5-4.3-3.3.6-1.6,6.1,1.5,4.3ZM87.7,8.8c3.6.6,3.8-5.2,0-4.5-2.2.5-2.3,4.1,0,4.5ZM131,7.2c-1.1,0-2.1.9-2.1,2.1s.9,2.1,2.1,2.1,2.1-.9,2.1-2.1-.9-2.1-2.1-2.1ZM69.4,14.6c2-.5,1.7-4.4-.9-4.1-2.7.3-2.1,4.8.9,4.1ZM142.9,14.4c-1.1,0-1.9.9-1.9,2s.9,2,1.9,2,1.9-.9,1.9-2-.9-2-1.9-2ZM60,19.6c1.7-1.8-.8-4.7-2.7-2.9-1.8,1.7.9,4.8,2.7,2.9ZM49.4,22.7c-1,0-1.9.8-1.9,1.9s.8,1.9,1.9,1.9,1.9-.8,1.9-1.9-.8-1.9-1.9-1.9ZM102.9,13.5c-1,0-1.8.8-1.8,1.8s.8,1.8,1.8,1.8,1.8-.8,1.8-1.8-.8-1.8-1.8-1.8ZM40.1,30.6c-1,0-1.8.8-1.8,1.8s.8,1.8,1.8,1.8,1.8-.8,1.8-1.8-.8-1.8-1.8-1.8Z"/>
  </g>
  <g>
    <path d="M11.2,85.8c0,.6,0,1.2-.1,1.8s0,1,0,1.4,0,.6,0,.9c0,.3,0,.5,0,.7h-.5c-.2-1.1-.4-1.9-.8-2.6-.3-.6-.7-1.1-1.2-1.3-.5-.3-1-.4-1.7-.4h-.7c-.4,0-.7,0-.9.1-.2,0-.4.2-.4.4,0,.2-.1.5-.1,1v10.5c0,.5,0,1,.2,1.2.1.3.3.4.7.5.3,0,.8.1,1.4.1v.5c-.4,0-1,0-1.7,0s-1.4,0-2.2,0-1.2,0-1.8,0c-.6,0-1.1,0-1.6,0v-.4c.4,0,.8,0,1-.2.2,0,.4-.3.5-.5s.1-.6.1-1.1v-10.4c0-.5,0-.9-.1-1.1s-.2-.4-.5-.5c-.2,0-.6-.1-1-.2v-.4c.6,0,1.2,0,1.8,0,.6,0,1.3,0,1.9,0,.6,0,1.2,0,1.8,0h1.3c.6,0,1.4,0,2.2,0,.8,0,1.6,0,2.2,0ZM8.1,93.1v.4h-3.8v-.4h3.8ZM8.6,90.3c0,.8,0,1.4,0,1.8,0,.4,0,.8,0,1.2s0,.7,0,1.2c0,.4,0,1,.1,1.8h-.5c0-.5-.2-.9-.4-1.4s-.4-.8-.8-1c-.4-.3-.8-.4-1.4-.4v-.4c.4,0,.8,0,1.1-.3s.5-.4.7-.7c.2-.3.3-.6.5-.9.1-.3.2-.6.3-.9h.5Z"/>
    <path d="M16.6,89.6v9.1c0,.6.1,1,.3,1.2.2.2.5.3,1,.3v.4c-.3,0-.7,0-1.2,0-.5,0-1.1,0-1.6,0s-1.1,0-1.7,0c-.6,0-1,0-1.3,0v-.4c.5,0,.8-.1,1-.3.2-.2.3-.6.3-1.2v-6.6c0-.6,0-1.1-.3-1.4-.2-.3-.5-.5-1.1-.5v-.4c.4,0,.9,0,1.3,0s1.1,0,1.6,0c.5,0,1-.1,1.4-.2ZM15,84.4c.6,0,1.1.1,1.4.4.3.3.5.7.5,1.2s-.2.9-.5,1.2c-.3.3-.8.4-1.4.4s-1.1-.1-1.4-.4c-.3-.3-.5-.7-.5-1.2s.2-.9.5-1.2c.3-.3.8-.4,1.4-.4Z"/>
    <path d="M26.6,89.5c.6,0,1.1,0,1.4.2.4.1.7.3.9.6.2.3.4.6.5,1s.2,1,.2,1.7v5.6c0,.6.1,1,.3,1.2.2.2.5.3,1,.3v.4c-.3,0-.7,0-1.2,0-.5,0-1.1,0-1.6,0s-1.1,0-1.6,0c-.5,0-.9,0-1.2,0v-.4c.4,0,.7-.1.9-.3s.3-.6.3-1.2v-6.5c0-.3,0-.7-.1-.9,0-.3-.2-.5-.4-.6-.2-.1-.5-.2-.8-.2s-.7.1-1,.3-.6.5-.8.9c-.2.4-.3.8-.3,1.2v5.8c0,.6,0,1,.3,1.2.2.2.5.3.9.3v.4c-.3,0-.6,0-1.1,0-.5,0-1,0-1.5,0s-1.1,0-1.6,0c-.6,0-1,0-1.3,0v-.4c.5,0,.8-.1,1-.3.2-.2.3-.6.3-1.2v-6.6c0-.6,0-1.1-.3-1.4-.2-.3-.5-.5-1.1-.5v-.4c.4,0,.9,0,1.3,0s1.1,0,1.6,0c.5,0,1-.1,1.4-.2v1.9c.3-.7.8-1.2,1.4-1.5s1.3-.4,2-.4Z"/>
    <path d="M34.6,100.8c-.6,0-1.2-.1-1.6-.4s-.7-.6-.9-1c-.2-.4-.3-.8-.3-1.3s.1-1.1.4-1.5.6-.7,1.1-.9c.4-.2.9-.4,1.4-.6s.9-.3,1.4-.5c.4-.1.8-.3,1.1-.5s.4-.5.4-.8v-1.6c0-.4,0-.7-.2-1-.1-.3-.3-.5-.5-.7-.2-.2-.6-.2-1-.2s-.6,0-.8.1c-.3,0-.5.2-.7.4.4.1.7.4.9.6.2.3.3.6.3,1s-.2.9-.5,1.1c-.3.3-.7.4-1.2.4s-.9-.2-1.1-.5c-.3-.3-.4-.7-.4-1.1s.1-.7.3-1c.2-.3.5-.5.9-.8.4-.2.9-.4,1.4-.5.6-.1,1.2-.2,1.8-.2s1.2,0,1.7.2c.5.1,1,.4,1.3.7.3.3.5.7.6,1.2,0,.5.1,1.1.1,1.8v5.7c0,.3,0,.6.1.7,0,.1.2.2.4.2s.2,0,.4-.1c.1,0,.2-.2.4-.3l.2.4c-.3.3-.6.4-1,.6-.4.1-.8.2-1.3.2s-.9,0-1.2-.2c-.3-.1-.5-.3-.7-.6-.1-.3-.2-.5-.2-.9-.3.5-.7.9-1.2,1.2-.5.3-1.1.5-1.7.5ZM36.1,99.5c.3,0,.5,0,.8-.2s.5-.4.7-.7v-4.3c-.1.2-.3.4-.5.6s-.5.3-.7.5-.5.4-.7.6-.4.5-.6.8c-.1.3-.2.7-.2,1.1s.1,1,.4,1.2c.2.3.6.4.9.4Z"/>
    <path d="M50.4,89.5c.6,0,1.1,0,1.4.2.4.1.7.3.9.6.2.3.4.6.5,1s.2,1,.2,1.7v5.6c0,.6.1,1,.3,1.2.2.2.5.3,1,.3v.4c-.3,0-.7,0-1.2,0-.5,0-1.1,0-1.6,0s-1.1,0-1.6,0c-.5,0-.9,0-1.2,0v-.4c.4,0,.7-.1.9-.3s.3-.6.3-1.2v-6.5c0-.3,0-.7-.1-.9,0-.3-.2-.5-.4-.6-.2-.1-.5-.2-.8-.2s-.7.1-1,.3-.6.5-.8.9c-.2.4-.3.8-.3,1.2v5.8c0,.6,0,1,.3,1.2.2.2.5.3.9.3v.4c-.3,0-.6,0-1.1,0-.5,0-1,0-1.5,0s-1.1,0-1.6,0c-.6,0-1,0-1.3,0v-.4c.5,0,.8-.1,1-.3.2-.2.3-.6.3-1.2v-6.6c0-.6,0-1.1-.3-1.4-.2-.3-.5-.5-1.1-.5v-.4c.4,0,.9,0,1.3,0s1.1,0,1.6,0c.5,0,1-.1,1.4-.2v1.9c.3-.7.8-1.2,1.4-1.5s1.3-.4,2-.4Z"/>
    <path d="M61,89.5c.5,0,1,0,1.5.2.5.1.8.3,1.1.5.4.2.6.5.9.8.2.3.3.7.3,1.1s-.2.9-.5,1.2c-.3.3-.7.5-1.2.5s-.9-.1-1.2-.4c-.3-.3-.4-.7-.4-1.1s.1-.8.4-1.1c.3-.3.6-.5,1-.6-.1-.1-.3-.3-.5-.4-.2,0-.5-.1-.8-.1-.4,0-.8.1-1.1.4-.3.3-.6.6-.8,1-.2.4-.4,1-.5,1.6-.1.6-.2,1.3-.2,2,0,1.1.1,1.9.4,2.5s.6,1,1.1,1.3c.4.3.9.4,1.3.4s.6,0,.9-.1c.3,0,.6-.3,1-.5.3-.3.6-.6.9-1.1h.4c-.2.6-.4,1.2-.8,1.7s-.8.9-1.4,1.3c-.6.3-1.2.5-2.1.5s-1.7-.2-2.5-.6c-.7-.4-1.3-1-1.8-1.8s-.7-1.9-.7-3.2.2-2.3.7-3.2c.5-.9,1.1-1.5,1.9-1.9.8-.4,1.7-.7,2.7-.7Z"/>
    <path d="M70.3,89.6v9.1c0,.6.1,1,.3,1.2.2.2.5.3,1,.3v.4c-.3,0-.7,0-1.2,0-.5,0-1.1,0-1.6,0s-1.1,0-1.7,0c-.6,0-1,0-1.3,0v-.4c.5,0,.8-.1,1-.3.2-.2.3-.6.3-1.2v-6.6c0-.6,0-1.1-.3-1.4-.2-.3-.5-.5-1.1-.5v-.4c.4,0,.9,0,1.3,0s1.1,0,1.6,0c.5,0,1-.1,1.4-.2ZM68.6,84.4c.6,0,1.1.1,1.4.4.3.3.5.7.5,1.2s-.2.9-.5,1.2c-.3.3-.8.4-1.4.4s-1.1-.1-1.4-.4c-.3-.3-.5-.7-.5-1.2s.2-.9.5-1.2c.3-.3.8-.4,1.4-.4Z"/>
    <path d="M75.4,100.8c-.6,0-1.2-.1-1.6-.4s-.7-.6-.9-1c-.2-.4-.3-.8-.3-1.3s.1-1.1.4-1.5.6-.7,1.1-.9c.4-.2.9-.4,1.4-.6s.9-.3,1.4-.5c.4-.1.8-.3,1.1-.5s.4-.5.4-.8v-1.6c0-.4,0-.7-.2-1-.1-.3-.3-.5-.5-.7-.2-.2-.6-.2-1-.2s-.6,0-.8.1c-.3,0-.5.2-.7.4.4.1.7.4.9.6.2.3.3.6.3,1s-.2.9-.5,1.1c-.3.3-.7.4-1.2.4s-.9-.2-1.1-.5c-.3-.3-.4-.7-.4-1.1s.1-.7.3-1c.2-.3.5-.5.9-.8.4-.2.9-.4,1.4-.5.6-.1,1.2-.2,1.8-.2s1.2,0,1.7.2c.5.1,1,.4,1.3.7.3.3.5.7.6,1.2,0,.5.1,1.1.1,1.8v5.7c0,.3,0,.6.1.7,0,.1.2.2.4.2s.2,0,.4-.1c.1,0,.2-.2.4-.3l.2.4c-.3.3-.6.4-1,.6-.4.1-.8.2-1.3.2s-.9,0-1.2-.2c-.3-.1-.5-.3-.7-.6-.1-.3-.2-.5-.2-.9-.3.5-.7.9-1.2,1.2-.5.3-1.1.5-1.7.5ZM76.9,99.5c.3,0,.5,0,.8-.2s.5-.4.7-.7v-4.3c-.1.2-.3.4-.5.6s-.5.3-.7.5-.5.4-.7.6-.4.5-.6.8c-.1.3-.2.7-.2,1.1s.1,1,.4,1.2c.2.3.6.4.9.4Z"/>
    <path d="M87.7,84.2v14.5c0,.6.1,1,.3,1.2s.5.3,1,.3v.4c-.3,0-.7,0-1.2,0-.5,0-1.1,0-1.6,0s-1.1,0-1.6,0c-.6,0-1,0-1.2,0v-.4c.5,0,.8-.1,1-.3.2-.2.3-.6.3-1.2v-12c0-.6,0-1.1-.3-1.4s-.5-.5-1.1-.5v-.4c.4,0,.9,0,1.3,0s1.1,0,1.6,0c.5,0,1-.1,1.4-.2Z"/>
    <path d="M101.5,85.8v.4c-.4,0-.8,0-1,.2-.2,0-.4.3-.5.5,0,.2-.1.6-.1,1.1v10.4c0,.5,0,.9.1,1.1s.2.4.5.5c.2,0,.6.1,1,.2v.4c-.4,0-.9,0-1.4,0-.6,0-1.2,0-1.7,0s-1.3,0-1.9,0c-.6,0-1.1,0-1.4,0v-.4c.4,0,.8,0,1-.2.2,0,.4-.3.5-.5s.1-.6.1-1.1v-10.4c0-.5,0-.9-.1-1.1s-.2-.4-.5-.5c-.2,0-.6-.1-1-.2v-.4c.4,0,.8,0,1.4,0,.6,0,1.2,0,1.9,0s1.2,0,1.7,0c.6,0,1,0,1.4,0ZM108.8,85.8v.4c-.4,0-.9.3-1.4.6s-1,.8-1.6,1.4l-3.9,4.7,1.2-1.7,5,7.8c.2.3.4.6.6.8.2.2.5.4.9.5v.4c-.5,0-1,0-1.6,0-.6,0-1.1,0-1.6,0s-.7,0-1.1,0c-.4,0-1,0-1.6,0v-.4c.6,0,.9-.1,1-.2.1-.1,0-.4-.2-.7l-3-4.9c-.2-.3-.4-.6-.5-.7-.2-.2-.3-.3-.5-.3-.2,0-.4-.1-.6-.1v-.4c.6,0,1.2-.2,1.6-.5.5-.3,1-.8,1.6-1.5l1.2-1.5c.5-.6.8-1.2.9-1.6,0-.5,0-.8-.3-1.1-.3-.3-.7-.4-1.2-.4v-.4c.3,0,.7,0,1,0,.3,0,.6,0,1,0,.3,0,.7,0,1.1,0s.8,0,1.1,0c.3,0,.6,0,.9,0Z"/>
    <path d="M117.6,89.5c.6,0,1.1,0,1.4.2.4.1.7.3.9.6.2.3.4.6.5,1,.1.4.2,1,.2,1.7v5.6c0,.6.1,1,.3,1.2s.5.3,1,.3v.4c-.3,0-.7,0-1.2,0-.5,0-1.1,0-1.6,0s-1.1,0-1.6,0c-.5,0-.9,0-1.2,0v-.4c.4,0,.7-.1.9-.3s.3-.6.3-1.2v-6.5c0-.3,0-.7-.1-.9,0-.3-.2-.5-.4-.6-.2-.1-.5-.2-.8-.2s-.7.1-1,.3c-.3.2-.6.5-.8.9-.2.4-.3.8-.3,1.2v5.8c0,.6,0,1,.3,1.2.2.2.5.3.9.3v.4c-.3,0-.6,0-1.1,0-.5,0-1,0-1.5,0s-1.1,0-1.6,0c-.6,0-1,0-1.3,0v-.4c.5,0,.8-.1,1-.3.2-.2.3-.6.3-1.2v-6.6c0-.6,0-1.1-.3-1.4-.2-.3-.5-.5-1.1-.5v-.4c.4,0,.9,0,1.3,0s1.1,0,1.6,0c.5,0,1-.1,1.4-.2v1.9c.3-.7.8-1.2,1.4-1.5s1.3-.4,2-.4Z"/>
    <path d="M128.1,89.5c1,0,1.9.2,2.7.6.8.4,1.4,1,1.8,1.8.4.8.7,2,.7,3.3s-.2,2.5-.7,3.3c-.4.8-1,1.4-1.8,1.8-.8.4-1.7.6-2.7.6s-1.9-.2-2.7-.6c-.8-.4-1.4-1-1.8-1.8-.4-.8-.7-1.9-.7-3.3s.2-2.5.7-3.3,1-1.4,1.8-1.8,1.7-.6,2.7-.6ZM128.1,89.9c-.6,0-1,.4-1.4,1.2s-.6,2.2-.6,4.1.2,3.2.6,4.1c.4.8.8,1.2,1.4,1.2s1-.4,1.4-1.2c.4-.8.6-2.2.6-4.1s-.2-3.2-.6-4.1c-.4-.8-.8-1.2-1.4-1.2Z"/>
    <path d="M139.4,89.8v.4c-.3,0-.6,0-.8,0-.2,0-.4.1-.5.3,0,.2,0,.4,0,.8l2,6.2-.3.3,2.5-8.2.4.2-3.2,10.7c-.2,0-.4,0-.7,0s-.5,0-.7,0l-3.3-9.3c-.2-.6-.4-.9-.6-1-.2-.1-.4-.2-.6-.2v-.4c.4,0,.9,0,1.4,0,.5,0,1,0,1.6,0s.9,0,1.4,0c.5,0,.9,0,1.4,0ZM150.4,89.8v.4c-.3,0-.5.2-.8.5-.2.3-.5.7-.7,1.3l-2.8,8.7c-.2,0-.5,0-.7,0s-.5,0-.7,0l-3-8.1.6-2.8c.3,0,.5,0,.8,0s.5,0,.8,0l2.9,8.5-.2-.2,1.4-4.5c.2-.8.3-1.4.3-1.9,0-.5-.2-.8-.5-1.1-.3-.2-.7-.4-1.1-.4v-.4c.2,0,.5,0,.7,0s.5,0,.8,0c.3,0,.5,0,.7,0,.3,0,.6,0,.9,0,.3,0,.5,0,.7,0Z"/>
    <path d="M154.5,84.2v14.5c0,.6.1,1,.3,1.2.2.2.5.3,1,.3v.4c-.3,0-.7,0-1.2,0-.5,0-1.1,0-1.6,0s-1.1,0-1.6,0c-.6,0-1,0-1.2,0v-.4c.5,0,.8-.1,1-.3.2-.2.3-.6.3-1.2v-12c0-.6,0-1.1-.3-1.4s-.5-.5-1.1-.5v-.4c.4,0,.9,0,1.3,0s1.1,0,1.6,0c.5,0,1-.1,1.4-.2Z"/>
    <path d="M162,89.5c1.2,0,2.2.4,2.9,1.1.7.7,1,1.9,1,3.6h-6.9v-.4s4.3,0,4.3,0c0-.7,0-1.3-.1-1.9s-.3-1-.5-1.4c-.2-.4-.5-.5-.8-.5s-.9.3-1.2.9c-.3.6-.5,1.6-.6,3.1h0c0,.3,0,.5,0,.7,0,.2,0,.4,0,.6,0,1,.1,1.8.4,2.4.3.6.6,1,1,1.3.4.3.8.4,1.3.4s.6,0,.9-.1c.3,0,.6-.3,1-.5s.6-.6.9-1h.4c-.2.7-.4,1.2-.8,1.7-.4.5-.8.9-1.4,1.2-.6.3-1.2.5-2,.5s-1.8-.2-2.5-.6c-.7-.4-1.3-1-1.7-1.8s-.6-1.9-.6-3.2.2-2.4.7-3.3c.4-.9,1-1.5,1.8-1.9.8-.4,1.7-.6,2.7-.6Z"/>
    <path d="M172.1,89.5c.6,0,1.2.1,1.6.3.5.2.8.5,1.1,1l-.3.2c-.2-.3-.4-.6-.7-.7-.3-.1-.6-.2-1-.2-.7,0-1.3.4-1.7,1.2-.4.8-.6,2.1-.6,3.9,0,1.2,0,2.1.2,2.8.2.7.4,1.2.7,1.5.3.3.6.5,1,.5s.9-.2,1.3-.6.6-.9.6-1.5v.7c-.1.7-.4,1.3-.9,1.7-.5.4-1.1.6-1.8.6s-1.6-.2-2.2-.6c-.7-.4-1.2-1-1.5-1.9s-.5-1.9-.5-3.3.2-2.3.6-3.2c.4-.8,1-1.5,1.7-1.9.7-.4,1.5-.6,2.4-.6ZM177.5,84.2v14.1c0,.6,0,1.1.3,1.4.2.3.5.5,1,.5v.4c-.4,0-.9,0-1.3,0s-1.1,0-1.6,0c-.5,0-1,.1-1.4.2v-14.1c0-.6,0-1.1-.3-1.4-.2-.3-.5-.5-1.1-.5v-.4c.4,0,.9,0,1.3,0s1.1,0,1.6,0c.5,0,1-.1,1.4-.2Z"/>
    <path d="M183.8,104.6c-.9,0-1.6,0-2.3-.2-.7-.1-1.2-.4-1.6-.7-.4-.3-.6-.7-.6-1.1s.2-.8.6-1.2c.4-.3,1-.6,1.7-.8l.2.3c-.3.2-.5.4-.6.7s-.2.5-.2.8c0,.6.3,1,.8,1.4.5.3,1.3.5,2.2.5s1.2,0,1.7-.3.9-.4,1.2-.8c.3-.3.4-.7.4-1.2s-.2-.8-.5-1.1c-.3-.3-.9-.4-1.8-.4h-1.3c-.6,0-1.1,0-1.5-.2s-.8-.3-1-.6c-.2-.3-.4-.6-.4-1s.2-1.1.7-1.6c.5-.4,1.1-.9,2.1-1.3l.2.2c-.3.2-.5.3-.7.5-.2.2-.3.4-.3.7,0,.4.3.7.8.7h2.3c.8,0,1.5,0,2.1.3.6.2,1.1.5,1.4.9.4.4.5.9.5,1.6s-.2,1.3-.7,1.9c-.4.6-1.1,1.1-2,1.4-.9.4-2.1.5-3.5.5ZM184,96.2c-.8,0-1.5-.1-2.1-.4-.6-.2-1.1-.6-1.5-1.1-.4-.5-.5-1.1-.5-1.9s.2-1.4.5-1.9c.4-.5.9-.9,1.5-1.1.6-.2,1.3-.3,2.1-.3s1.5.1,2.1.3c.6.2,1.1.6,1.5,1.1.4.5.5,1.1.5,1.9s-.2,1.4-.5,1.9-.9.9-1.5,1.1-1.3.4-2.1.4ZM184,95.8c.4,0,.7-.2.9-.6s.3-1.2.3-2.3-.1-1.9-.3-2.3c-.2-.4-.5-.6-.9-.6s-.7.2-.9.6c-.2.4-.3,1.2-.3,2.3s.1,1.9.3,2.3c.2.4.5.6.9.6ZM187.3,91.3h-.4c.2-.7.5-1.1,1-1.5.5-.4,1-.5,1.5-.5s.8.1,1,.4c.2.2.3.6.3,1s-.1.7-.3.9-.5.3-.8.3-.5,0-.7-.3c-.2-.2-.3-.4-.3-.8,0-.3,0-.8.4-1.3h.1c-.5.3-.9.5-1.2.8-.3.3-.5.6-.7,1Z"/>
    <path d="M196.4,89.5c1.2,0,2.2.4,2.9,1.1.7.7,1,1.9,1,3.6h-6.9v-.4s4.3,0,4.3,0c0-.7,0-1.3-.1-1.9s-.3-1-.5-1.4c-.2-.4-.5-.5-.8-.5s-.9.3-1.2.9c-.3.6-.5,1.6-.6,3.1h0c0,.3,0,.5,0,.7,0,.2,0,.4,0,.6,0,1,.1,1.8.4,2.4.3.6.6,1,1,1.3.4.3.8.4,1.3.4s.6,0,.9-.1c.3,0,.6-.3,1-.5s.6-.6.9-1h.4c-.2.7-.4,1.2-.8,1.7-.4.5-.8.9-1.4,1.2-.6.3-1.2.5-2,.5s-1.8-.2-2.5-.6c-.7-.4-1.3-1-1.7-1.8s-.6-1.9-.6-3.2.2-2.4.7-3.3c.4-.9,1-1.5,1.8-1.9.8-.4,1.7-.6,2.7-.6Z"/>
  </g>
  <g>
    <path d="M56.8,107.2c-.4,0-.7,0-1,.2-.3.1-.6.3-.9.5-.3.3-.6.7-.8,1.2-.3.5-.5,1.1-.7,1.8-.2.7-.4,1.5-.6,2.4l-7.4,27.6c-1,0-1.9,0-2.8.1s-1.7.2-2.4.4l6.7-25.1c.5-2,1.1-3.7,1.8-5.1.7-1.3,1.5-2.4,2.4-3.2.7-.6,1.5-1,2.3-1.2.9-.3,1.8-.4,2.8-.4,1.5,0,2.7.3,3.5.9.8.6,1.2,1.5,1.2,2.5s-.1,1-.4,1.5c-.3.5-.7.9-1.2,1.2-.5.3-1.1.5-1.7.5s-1.3-.2-1.7-.5c-.4-.3-.6-.8-.6-1.4s.2-1.5.7-2.1c.5-.6,1.2-1.1,2-1.4-.1-.1-.3-.2-.5-.3-.2,0-.4-.1-.7-.1ZM43.7,116.8l.2-.7h11.9l-.2.7h-11.9Z"/>
    <path d="M54.4,129.2c0-1.1.1-2.3.4-3.5.3-1.2.8-2.5,1.4-3.7.6-1.2,1.4-2.3,2.3-3.3.9-1,2-1.8,3.3-2.3,1.3-.6,2.7-.9,4.2-.9s3.3.5,4.3,1.5c1,1,1.5,2.5,1.5,4.4s-.2,2.3-.5,3.5c-.3,1.2-.8,2.5-1.4,3.7s-1.4,2.3-2.3,3.3c-.9,1-2,1.8-3.3,2.3-1.3.6-2.7.9-4.2.9s-3.3-.5-4.3-1.5c-1-1-1.5-2.5-1.5-4.4ZM65.9,116.3c-.6,0-1.1.3-1.7,1-.6.7-1.2,1.5-1.8,2.6-.6,1.1-1.1,2.3-1.6,3.7-.5,1.4-.8,2.8-1.1,4.2-.3,1.5-.4,2.8-.4,4.2s.1,1.5.3,1.9c.2.4.5.6.9.6s1.1-.3,1.7-1c.6-.6,1.2-1.5,1.8-2.6.6-1.1,1.1-2.3,1.6-3.7.5-1.4.8-2.8,1.1-4.2s.4-2.9.4-4.2-.1-1.7-.3-2c-.2-.3-.5-.5-.9-.5Z"/>
    <path d="M78.6,134.7h-5.1l4.4-15.6c.2-.6.2-1.1.2-1.4,0-.3-.2-.4-.6-.4s-.8.2-1.2.6c-.4.4-.7,1.2-1.2,2.2l-.7,1.8h-.7l1-2.7c.4-1,.8-1.7,1.3-2.2.5-.5,1.1-.9,1.7-1.1.6-.2,1.3-.3,2-.3s1.4.2,1.8.5c.4.3.7.7.8,1.2s.2,1,.2,1.6c0,.6-.1,1.2-.3,1.7l-3.6,14.1ZM87.8,116.3c-.5,0-1,.1-1.5.4-.6.3-1.1.8-1.7,1.5-.6.7-1.2,1.8-1.8,3.1-.6,1.3-1.3,3-1.9,5.1-.7,2.1-1.3,4.5-2,7.4l.8-4.9c.8-2.6,1.5-4.8,2.1-6.6.6-1.7,1.3-3.1,1.9-4.1.6-1,1.3-1.7,2-2.2.7-.4,1.5-.6,2.4-.6s1.7.3,2.2.8c.5.6.8,1.2.8,2.1s-.2,1.3-.5,1.9c-.3.6-.7,1-1.2,1.4s-1.1.5-1.7.5-1.2-.2-1.6-.6c-.4-.4-.6-.9-.6-1.6s.1-1.1.4-1.6c.3-.5.6-.9,1.1-1.3.5-.4,1-.6,1.5-.7,0,0-.1,0-.2,0,0,0-.2,0-.3,0Z"/>
    <path d="M118,127.1c-.1.4-.3.8-.4,1.3-.1.5-.3,1-.4,1.6-.1.5-.3,1.1-.5,2-.2.9-.4,1.7-.5,2.6-1.2,0-2.6,0-4.1,0-1.5,0-2.9,0-4.1,0h-2.3c-.9,0-1.9,0-3,0-1.1,0-2.2,0-3.3,0-1.1,0-2.1,0-3.1,0l.2-.7c.8,0,1.5-.1,1.9-.3.5-.1.8-.4,1.1-.9s.5-1.1.7-1.9l4.8-17.9c.2-.9.3-1.5.3-2s-.3-.7-.6-.9-1-.2-1.8-.3l.2-.7c.6,0,1.5,0,2.5,0,1.1,0,2.2,0,3.4,0s2.1,0,3.1,0c1,0,1.8,0,2.6,0l-.2.7c-.8,0-1.5.1-1.9.3-.5.2-.8.4-1.1.9-.3.4-.5,1.1-.8,2l-4.8,17.9c-.2.9-.3,1.5-.3,1.9,0,.4.2.7.6.8.4.1,1,.2,1.8.2h1.4c1.1,0,2.1-.2,3-.6.9-.4,1.8-1.1,2.6-2.1.8-1,1.5-2.3,2.2-4h.8Z"/>
    <path d="M124.6,119.1c.4-1.2.3-1.8-.4-1.8s-.8.2-1.2.6-.7,1.2-1.1,2.2l-.7,1.8h-.7l1-2.7c.3-1,.8-1.7,1.3-2.2.5-.5,1.1-.9,1.7-1.1.6-.2,1.3-.3,2-.3s1.5.2,2,.5c.5.3.8.7,1,1.2.2.5.2,1,.2,1.6,0,.6-.2,1.2-.4,1.7l-3.8,11c-.2.6-.3,1.1-.2,1.4.1.3.3.4.7.4s.7-.2,1-.5c.4-.4.8-1.1,1.2-2.3l.6-1.7h.7l-.9,2.6c-.3,1-.8,1.7-1.3,2.3-.5.5-1.1.9-1.7,1.1-.6.2-1.2.3-1.9.3-1,0-1.8-.2-2.4-.7-.5-.5-.8-1.1-.9-2s.1-1.9.5-3.1l3.5-10.3ZM126,110c0-1,.4-1.8,1.1-2.4.7-.6,1.6-.8,2.5-.8s1.6.2,2,.6c.5.4.7,1,.6,1.7,0,.9-.4,1.7-1.2,2.3-.7.6-1.6.9-2.6.9s-1.5-.2-2-.6-.7-1-.6-1.7Z"/>
    <path d="M146.3,107.2c-.4,0-.7,0-1,.2-.3.1-.6.3-.9.5-.3.3-.6.7-.8,1.2-.3.5-.5,1.1-.7,1.8-.2.7-.4,1.5-.6,2.4l-7.4,27.6c-1,0-1.9,0-2.8.1s-1.7.2-2.4.4l6.7-25.1c.5-2,1.1-3.7,1.8-5.1.7-1.3,1.5-2.4,2.4-3.2.7-.6,1.5-1,2.3-1.2.9-.3,1.8-.4,2.8-.4,1.5,0,2.7.3,3.5.9s1.2,1.5,1.2,2.5-.1,1-.4,1.5c-.3.5-.7.9-1.2,1.2-.5.3-1.1.5-1.7.5s-1.3-.2-1.7-.5c-.4-.3-.6-.8-.6-1.4s.2-1.5.7-2.1,1.2-1.1,2-1.4c-.1-.1-.3-.2-.5-.3-.2,0-.5-.1-.7-.1ZM133.2,116.8l.2-.7h11.9l-.2.7h-11.9Z"/>
    <path d="M148.2,126.9c1-.4,1.9-.8,2.8-1.3.9-.5,1.6-1,2.3-1.6.9-.8,1.7-1.8,2.2-2.9.6-1.1.8-2.3.8-3.6s0-.8-.1-1c0-.2-.2-.2-.4-.2-.5,0-1.1.3-1.7.8-.6.5-1.2,1.3-1.8,2.2-.6.9-1.1,1.9-1.6,3.1-.5,1.2-.9,2.4-1.2,3.6-.3,1.2-.5,2.5-.5,3.6s.3,2.3.8,2.8c.5.5,1.2.7,2,.7s1.5-.2,2.4-.6c1-.4,1.9-1.2,2.8-2.3l.6.3c-.5.8-1.2,1.6-2,2.3-.8.7-1.8,1.3-2.8,1.8s-2.3.7-3.5.7-2-.2-2.9-.6c-.9-.4-1.5-1-2-1.7s-.7-1.7-.7-2.8.2-2.6.6-3.9c.4-1.3,1-2.6,1.8-3.9.8-1.3,1.7-2.4,2.8-3.4,1.1-1,2.3-1.8,3.6-2.4,1.3-.6,2.7-.9,4.2-.9s1.9.2,2.7.7c.7.5,1.1,1.2,1.1,2.1s-.3,1.8-.8,2.6c-.5.8-1.2,1.6-2.1,2.2s-1.8,1.3-2.9,1.8c-1.1.5-2.2,1-3.3,1.4-1.1.4-2.2.7-3.2.9v-.5Z"/>
  </g>
</svg>