<svg width="46" height="46" viewBox="0 0 46 46" fill="none" xmlns="http://www.w3.org/2000/svg">
<g clip-path="url(#clip0_442_3799)">
<path d="M43.585 31.2928L38.5761 22.8339L43.5339 14.72C43.6516 14.5266 43.7158 14.3055 43.72 14.0792C43.7242 13.8528 43.6682 13.6295 43.5577 13.4319C43.4472 13.2343 43.2862 13.0696 43.0912 12.9547C42.8962 12.8398 42.6741 12.7787 42.4478 12.7778H2.55556C1.87778 12.7778 1.22776 13.047 0.748505 13.5263C0.269245 14.0055 0 14.6556 0 15.3333L0 30.6667C0 31.3444 0.269245 31.9945 0.748505 32.4737C1.22776 32.953 1.87778 33.2222 2.55556 33.2222H42.4861C42.7116 33.2222 42.9332 33.1624 43.1281 33.0491C43.3231 32.9357 43.4846 32.7728 43.5962 32.5768C43.7078 32.3808 43.7656 32.1588 43.7636 31.9333C43.7616 31.7078 43.7 31.4868 43.585 31.2928ZM13.4294 27.0633H11.9983L7.83278 21.5178V27.0761H6.38889V19.1667H7.83278L12.0111 24.725V19.1667H13.4422L13.4294 27.0633ZM21.5178 20.4444H17.0072V22.3483H21.0961V23.6261H17.0072V25.6833H21.5178V26.9611H15.5633V19.1667H21.505L21.5178 20.4444ZM32.1106 27.0378H30.6667L28.6861 21.1728L26.7056 27.0633H25.2744L22.7189 19.1667H24.2778L25.9644 24.8272L27.9067 19.1667H29.4656L31.3311 24.8272L33.0306 19.1667H34.6022L32.1106 27.0378Z" fill="#1E1E1E"/>
</g>
<defs>
<clipPath id="clip0_442_3799">
<rect width="46" height="46" fill="white"/>
</clipPath>
</defs>
</svg>
