<?xml version="1.0" encoding="UTF-8"?>
<svg version="1.1" xmlns="http://www.w3.org/2000/svg" width="189" height="116">
<path d="M0 0 C1.67542976 0.28604898 3.34385343 0.61781233 5 1 C5.68707555 3.49064888 6 5.37886292 6 8 C6.94978897 10.15028304 6.94978897 10.15028304 8 12 C10.1806193 8.09305709 11.25571573 5.47502532 11 1 C12 0 12 0 14.5625 -0.0625 C15.7690625 -0.0315625 15.7690625 -0.0315625 17 0 C17.79953138 3.28696233 18.09658936 4.71023192 17 8 C17.66 8 18.32 8 19 8 C20.97510481 11.95020961 20.38900509 17.27108851 19.4375 21.5 C18.85580224 24.82398718 19.35983727 27.78797397 19.84375 31.109375 C19.8953125 31.73328125 19.946875 32.3571875 20 33 C19.67 33.33 19.34 33.66 19 34 C18.95907063 36.33297433 18.95758277 38.66705225 19 41 C20.485 41.495 20.485 41.495 22 42 C22.33 37.05 22.66 32.1 23 27 C21.515 26.505 21.515 26.505 20 26 C20.86889957 19.47182032 21.55385041 15.0594116 26 10 C25.69159401 7.84725052 25.69159401 7.84725052 25 6 C25.66 5.34 26.32 4.68 27 4 C29.125 4.375 29.125 4.375 31 5 C31.82638376 7.89234315 32 9.88742431 32 13 C32.82633132 17.33299542 32.82633132 17.33299542 35 21 C35.28875 20.21625 35.5775 19.4325 35.875 18.625 C37 16 37 16 39 14 C39.70710678 12.35008418 40.37943989 10.68437744 41 9 C42.65 9.33 44.3 9.66 46 10 C45.835 10.495 45.67 10.99 45.5 11.5 C44.52132072 16.39339641 44.14761292 20.72141938 47 25 C47.16015625 27.375 47.16015625 27.375 47.0625 30 C46.95523118 33.1341151 46.99453557 34.98360672 48 38 C47.96519531 37.34773438 47.93039063 36.69546875 47.89453125 36.0234375 C47.72725033 30.62265341 47.72328379 26.56399758 51 22 C53.1875 21.125 53.1875 21.125 55 21 C55 20.01 55 19.02 55 18 C56.65 18 58.3 18 60 18 C60.33 18.99 60.66 19.98 61 21 C60.67 21.66 60.34 22.32 60 23 C59.01 23.33 58.02 23.66 57 24 C56.74930087 26.37429296 56.74930087 26.37429296 57 29 C57.48082031 29.39445312 57.96164063 29.78890625 58.45703125 30.1953125 C61.55659945 33.82063024 61.01190362 39.32020222 60.81640625 43.89453125 C60.23967268 48.45501794 58.23217522 50.67091155 54.8125 53.75 C52.90684216 55.20921859 50.96966761 56.6284096 49 58 C47.32622832 59.32440324 45.65716661 60.65487756 44 62 C44.88751953 62.18175781 44.88751953 62.18175781 45.79296875 62.3671875 C52.60631903 63.81210681 52.60631903 63.81210681 55.75 65.3125 C56.4925 65.539375 57.235 65.76625 58 66 C58.70125 65.566875 59.4025 65.13375 60.125 64.6875 C63.9221128 62.45875988 67.23554218 62.45751993 71.57421875 62.2109375 C74.00829824 62.1492044 74.00829824 62.1492044 76 61 C79.02344477 61.00881471 82.03399386 61.13164102 85.0546875 61.2578125 C88.39172231 60.96571131 89.45737336 60.04853544 92 58 C94.75 58.8125 94.75 58.8125 97 60 C97.042721 61.66611905 97.04063832 63.33382885 97 65 C96.67 65.33 96.34 65.66 96 66 C96.99 66.66 97.98 67.32 99 68 C98.92613616 70.67879532 98.49909783 72.45104758 96.67529297 74.45703125 C94.81942332 76.06336775 92.91330407 77.54350283 90.9375 79 C90.2266626 79.52891846 89.5158252 80.05783691 88.78344727 80.6027832 C81.6592833 85.64851129 74.52048334 88.1892824 66 90 C64.35837891 90.40992187 64.35837891 90.40992187 62.68359375 90.828125 C57.487024 91.07059485 53.43855315 89.38821195 48.625 87.5625 C37.38422346 83.30707043 37.38422346 83.30707043 25.8828125 85.3125 C24.97273438 85.869375 24.06265625 86.42625 23.125 87 C14.85685235 91.40550291 8.47756633 90.8043003 -0.4375 88.5625 C-8.18333152 86.17201983 -15.4240036 82.76592693 -22.7734375 79.375 C-44.76286279 69.28041523 -66.0196772 62.91652575 -90 60 C-90 59.01 -90 58.02 -90 57 C-83.375 54 -83.375 54 -80 54 C-80.495 52.515 -80.495 52.515 -81 51 C-79.515 50.505 -79.515 50.505 -78 50 C-77.87625 48.824375 -77.87625 48.824375 -77.75 47.625 C-77.37875 46.325625 -77.37875 46.325625 -77 45 C-75.66666667 44.33333333 -74.33333333 43.66666667 -73 43 C-72.18828772 40.44480079 -72.18828772 40.44480079 -72 38 C-70.68 38 -69.36 38 -68 38 C-68 39.65 -68 41.3 -68 43 C-68.66 43 -69.32 43 -70 43 C-69.34 45.31 -68.68 47.62 -68 50 C-64.9083091 47.47043472 -64.09068668 44.77545388 -63 41 C-63.66 41 -64.32 41 -65 41 C-64.43786534 37.62719205 -63.56079776 35.02404566 -62 32 C-61.63215869 30.6757713 -61.28797019 29.34386088 -61 28 C-59.35 28.33 -57.7 28.66 -56 29 C-56.2784375 30.299375 -56.2784375 30.299375 -56.5625 31.625 C-57.00753026 35.05809057 -56.61402446 37.62286547 -56 41 C-56.495 41.99 -56.495 41.99 -57 43 C-57 44.32 -57 45.64 -57 47 C-55.68 47 -54.36 47 -53 47 C-52.34 43.04 -51.68 39.08 -51 35 C-51.99 35 -52.98 35 -54 35 C-52.93322344 30.65083404 -52.12557279 28.12557279 -49 25 C-49.22757731 22.83700789 -49.22757731 22.83700789 -50 21 C-48.35 20.67 -46.7 20.34 -45 20 C-44.06576355 23.01031744 -43.95550089 23.86650268 -45 27 C-44.3711811 29.01222047 -43.70381157 31.01276732 -43 33 C-43 33.99 -43 34.98 -43 36 C-43.66 36 -44.32 36 -45 36 C-44.505 40.455 -44.505 40.455 -44 45 C-43.01 45 -42.02 45 -41 45 C-40.80606125 42.85473901 -40.62001324 40.70876323 -40.4375 38.5625 C-40.33308594 37.36753906 -40.22867188 36.17257813 -40.12109375 34.94140625 C-40.08113281 33.97074219 -40.04117188 33.00007813 -40 32 C-40.33 31.67 -40.66 31.34 -41 31 C-40.984375 28.8203125 -40.984375 28.8203125 -40.75 26.125 C-40.68296875 25.24070312 -40.6159375 24.35640625 -40.546875 23.4453125 C-39.93377499 20.70387959 -39.14840673 19.74413664 -37 18 C-37.495 16.515 -37.495 16.515 -38 15 C-37.67 14.34 -37.34 13.68 -37 13 C-35.35 13 -33.7 13 -32 13 C-32.04125 13.99 -32.0825 14.98 -32.125 16 C-32.13674136 18.89424557 -31.74464104 21.39247414 -31 24.1875 C-30 28 -30 28 -30 32 C-30.66 32 -31.32 32 -32 32 C-31.505 37.445 -31.505 37.445 -31 43 C-30.01 43 -29.02 43 -28 43 C-27.90912109 42.09507813 -27.90912109 42.09507813 -27.81640625 41.171875 C-27.73261719 40.37265625 -27.64882813 39.5734375 -27.5625 38.75 C-27.48128906 37.96109375 -27.40007813 37.1721875 -27.31640625 36.359375 C-27.02365007 34.17635361 -26.57935581 32.1226818 -26 30 C-26.66 30 -27.32 30 -28 30 C-28.08142927 28.2507786 -28.13938541 26.50045458 -28.1875 24.75 C-28.22230469 23.77546875 -28.25710937 22.8009375 -28.29296875 21.796875 C-27.95532126 18.57346693 -26.95424024 17.49477477 -25 15 C-25.22868094 11.31184707 -25.22868094 11.31184707 -26 8 C-23.29120665 6.64560332 -20.99066732 6.93498549 -18 7 C-18.165 8.11375 -18.33 9.2275 -18.5 10.375 C-19.06647957 14.48197691 -19.0636668 15.75727032 -18 19.8125 C-17.1945945 22.95415266 -16.70325279 25.73578074 -17 29 C-17.495 29.495 -17.495 29.495 -18 30 C-18.09858603 31.4555937 -18.12972143 32.91607919 -18.125 34.375 C-18.12757812 35.16648438 -18.13015625 35.95796875 -18.1328125 36.7734375 C-18.08617666 39.17343496 -18.08617666 39.17343496 -17 42 C-16.34 42.33 -15.68 42.66 -15 43 C-14.67 37.72 -14.34 32.44 -14 27 C-14.66 27 -15.32 27 -16 27 C-16.05406122 25.06280622 -16.09282025 23.12518079 -16.125 21.1875 C-16.14820312 20.10855469 -16.17140625 19.02960937 -16.1953125 17.91796875 C-16 15 -16 15 -14 12 C-13.60986284 10.0103005 -13.26797351 8.00980131 -13 6 C-10.525 5.505 -10.525 5.505 -8 5 C-7.40267181 7.76264289 -7 10.16032769 -7 13 C-6.36893571 15.01151741 -5.70626239 17.01363702 -5 19 C-4.94392578 18.09507813 -4.94392578 18.09507813 -4.88671875 17.171875 C-4.49590478 12.42080315 -4.07804422 9.74718427 -1 6 C-0.83286431 3.37468476 -0.83286431 3.37468476 -1 1 C-0.67 0.67 -0.34 0.34 0 0 Z M-5 22 C-4 25 -4 25 -4 25 Z M-7 27 C-7.68030178 29.85638675 -7.68030178 29.85638675 -7.4375 33 C-7.41558594 34.051875 -7.39367187 35.10375 -7.37109375 36.1875 C-7.18366186 39.20235773 -7.18366186 39.20235773 -5 42 C-4.01 42 -3.02 42 -2 42 C-1.505 33.09 -1.505 33.09 -1 24 C-3.46433595 24 -5.13913587 25.58444567 -7 27 Z M32 25 C32.33 30.61 32.66 36.22 33 42 C33.66 42 34.32 42 35 42 C36.13480527 38.39006828 36.10015767 35.0157673 36.0625 31.25 C36.05347656 30.07953125 36.04445313 28.9090625 36.03515625 27.703125 C36.02355469 26.81109375 36.01195313 25.9190625 36 25 C34.68 25 33.36 25 32 25 Z M43 27 C43.33 32.28 43.66 37.56 44 43 C44.33 43 44.66 43 45 43 C45 38.05 45 33.1 45 28 C44.34 27.67 43.68 27.34 43 27 Z M55 32 C55.33 36.29 55.66 40.58 56 45 C56.66 45 57.32 45 58 45 C58.08086147 43.20906809 58.13912702 41.41710372 58.1875 39.625 C58.22230469 38.62726562 58.25710937 37.62953125 58.29296875 36.6015625 C58.19628906 35.74304687 58.09960938 34.88453125 58 34 C57.01 33.34 56.02 32.68 55 32 Z M3 33 C1.64560332 35.70879335 1.93498549 38.00933268 2 41 C2.99 41.33 3.98 41.66 5 42 C5.93380961 37.46859347 5.93380961 37.46859347 5 33 C4.34 33 3.68 33 3 33 Z M28 33 C27.34 35.64 26.68 38.28 26 41 C26.99 41.33 27.98 41.66 29 42 C29 39.03 29 36.06 29 33 C28.67 33 28.34 33 28 33 Z M13 34 C12.67 36.31 12.34 38.62 12 41 C12.99 41.495 12.99 41.495 14 42 C14 39.36 14 36.72 14 34 C13.67 34 13.34 34 13 34 Z M-23 35 C-24.35439668 37.70879335 -24.06501451 40.00933268 -24 43 C-23.34 43 -22.68 43 -22 43 C-22 40.36 -22 37.72 -22 35 C-22.33 35 -22.66 35 -23 35 Z M-11 36 C-11 37.98 -11 39.96 -11 42 C-10.67 42 -10.34 42 -10 42 C-10 40.02 -10 38.04 -10 36 C-10.33 36 -10.66 36 -11 36 Z M-36 37 C-36.33 39.31 -36.66 41.62 -37 44 C-36.34 44 -35.68 44 -35 44 C-35 41.69 -35 39.38 -35 37 C-35.33 37 -35.66 37 -36 37 Z M39 38 C39 39.65 39 41.3 39 43 C39.33 43 39.66 43 40 43 C40 41.35 40 39.7 40 38 C39.67 38 39.34 38 39 38 Z M8 39 C9 41 9 41 9 41 Z M-48 41 C-48.66 42.65 -49.32 44.3 -50 46 C-49.01 46 -48.02 46 -47 46 C-47 44.35 -47 42.7 -47 41 C-47.33 41 -47.66 41 -48 41 Z M51 43 C52 45 52 45 52 45 Z M-61 45 C-61.33 45.99 -61.66 46.98 -62 48 C-61.34 48 -60.68 48 -60 48 C-60.33 47.01 -60.66 46.02 -61 45 Z M-72 49 C-71 51 -71 51 -71 51 Z M77 73 C81 74 81 74 81 74 Z " fill="#000000" transform="translate(90,0)"/>
<path d="M0 0 C1.65 0 3.3 0 5 0 C6.32 3.3 7.64 6.6 9 10 C9.33 6.7 9.66 3.4 10 0 C11.32 0 12.64 0 14 0 C14 3.63 14 7.26 14 11 C15.98 11 17.96 11 20 11 C20 11.99 20 12.98 20 14 C15.05 14 10.1 14 5 14 C5 13.01 5 12.02 5 11 C3.35 11 1.7 11 0 11 C0 11.99 0 12.98 0 14 C-1.32 14 -2.64 14 -4 14 C-3.36843005 8.94744036 -1.86540627 4.70406799 0 0 Z M2 5 C2 5.99 2 6.98 2 8 C2.66 7.67 3.32 7.34 4 7 C3.34 6.34 2.68 5.68 2 5 Z " fill="#1C1A19" transform="translate(89,102)"/>
<path d="M0 0 C1.65 0 3.3 0 5 0 C6.8125 2.5 6.8125 2.5 8 5 C8.33 3.35 8.66 1.7 9 0 C10.32 0 11.64 0 13 0 C13 4.62 13 9.24 13 14 C11.35 14 9.7 14 8 14 C6.1875 11.5 6.1875 11.5 5 9 C4.67 10.65 4.34 12.3 4 14 C2.68 14 1.36 14 0 14 C0 9.38 0 4.76 0 0 Z " fill="#1C1A19" transform="translate(24,102)"/>
<path d="M0 0 C1.423125 -0.061875 2.84625 -0.12375 4.3125 -0.1875 C5.51326172 -0.23970703 5.51326172 -0.23970703 6.73828125 -0.29296875 C9 0 9 0 10.76953125 1.26171875 C12.24312122 3.34345696 12.40376248 4.46890199 12.375 7 C12.38273438 7.680625 12.39046875 8.36125 12.3984375 9.0625 C11.87313531 11.61691066 11.11606316 12.49119559 9 14 C6.73828125 14.29296875 6.73828125 14.29296875 4.3125 14.1875 C2.889375 14.125625 1.46625 14.06375 0 14 C0 9.38 0 4.76 0 0 Z M4 3 C4 5.64 4 8.28 4 11 C5.32 10.67 6.64 10.34 8 10 C8 8.02 8 6.04 8 4 C6.68 3.67 5.36 3.34 4 3 Z " fill="#1B1A19" transform="translate(128,102)"/>
<path d="M0 0 C5 1 5 1 6.8125 3.5625 C7.204375 4.366875 7.59625 5.17125 8 6 C8.33 4.02 8.66 2.04 9 0 C9.99 0 10.98 0 12 0 C12 4.62 12 9.24 12 14 C7 13 7 13 5.1875 10.4375 C4.795625 9.633125 4.40375 8.82875 4 8 C3.67 9.98 3.34 11.96 3 14 C2.01 14 1.02 14 0 14 C0 9.38 0 4.76 0 0 Z " fill="#1B1A19" transform="translate(53,102)"/>
<path d="M0 0 C1.65 0 3.3 0 5 0 C5.64910154 1.58199631 6.29414694 3.16565724 6.9375 4.75 C7.29714844 5.63171875 7.65679687 6.5134375 8.02734375 7.421875 C8.85356576 9.61186104 9.49369943 11.71898271 10 14 C8.35 13.67 6.7 13.34 5 13 C5 12.34 5 11.68 5 11 C3.02463255 11.34786708 3.02463255 11.34786708 1 12 C0.67 12.66 0.34 13.32 0 14 C-1.32 14 -2.64 14 -4 14 C-3.52188823 12.22888156 -3.0424722 10.45811517 -2.5625 8.6875 C-2.29566406 7.70136719 -2.02882812 6.71523437 -1.75390625 5.69921875 C-1.21920575 3.78482474 -0.62855462 1.88566385 0 0 Z M2 5 C2 5.99 2 6.98 2 8 C2.66 7.67 3.32 7.34 4 7 C3.34 6.34 2.68 5.68 2 5 Z " fill="#1B1A19" transform="translate(42,102)"/>
<path d="M0 0 C1.65 0 3.3 0 5 0 C5.67260351 1.76858691 6.33788395 3.53996016 7 5.3125 C7.37125 6.29863281 7.7425 7.28476563 8.125 8.30078125 C9 11 9 11 9 14 C7.68 14 6.36 14 5 14 C5 13.01 5 12.02 5 11 C3.35 11 1.7 11 0 11 C0 11.99 0 12.98 0 14 C-1.65 14 -3.3 14 -5 14 C-3.35 9.38 -1.7 4.76 0 0 Z M2 4 C1.67 5.32 1.34 6.64 1 8 C1.66 8 2.32 8 3 8 C2.67 6.68 2.34 5.36 2 4 Z " fill="#1B1A19" transform="translate(118,102)"/>
<path d="M0 0 C2.97 0 5.94 0 9 0 C9 0.99 9 1.98 9 3 C7.35 3 5.7 3 4 3 C4 3.66 4 4.32 4 5 C5.32 5 6.64 5 8 5 C8 5.99 8 6.98 8 8 C6.68 8 5.36 8 4 8 C4 8.99 4 9.98 4 11 C5.65 11 7.3 11 9 11 C9 11.99 9 12.98 9 14 C6.03 14 3.06 14 0 14 C0 9.38 0 4.76 0 0 Z " fill="#1B1A19" transform="translate(173,102)"/>
<path d="M0 0 C1.32 0 2.64 0 4 0 C4.66 2.31 5.32 4.62 6 7 C6.99 4.69 7.98 2.38 9 0 C10.32 0.33 11.64 0.66 13 1 C11.68 4.96 10.36 8.92 9 13 C7.35 13.33 5.7 13.66 4 14 C3.32739649 12.23141309 2.66211605 10.46003984 2 8.6875 C1.62875 7.70136719 1.2575 6.71523437 0.875 5.69921875 C0 3 0 3 0 0 Z " fill="#1B1A19" transform="translate(141,102)"/>
<path d="M0 0 C2.01822917 0.06510417 4.03645833 0.13020833 6.0546875 0.1953125 C6.0546875 1.5153125 6.0546875 2.8353125 6.0546875 4.1953125 C3.0846875 3.7003125 3.0846875 3.7003125 0.0546875 3.1953125 C0.0546875 5.8353125 0.0546875 8.4753125 0.0546875 11.1953125 C2.0346875 11.1953125 4.0146875 11.1953125 6.0546875 11.1953125 C6.0546875 12.1853125 6.0546875 13.1753125 6.0546875 14.1953125 C-1.28365836 14.67651551 -1.28365836 14.67651551 -4.0078125 12.6953125 C-5.4474114 8.8563821 -4.7857289 6.20345225 -3.9453125 2.1953125 C-1.9453125 0.1953125 -1.9453125 0.1953125 0 0 Z " fill="#1C1B19" transform="translate(164.9453125,101.8046875)"/>
<path d="M0 0 C1.9453125 -0.29296875 1.9453125 -0.29296875 4.125 -0.1875 C5.40375 -0.125625 6.6825 -0.06375 8 0 C8 1.32 8 2.64 8 4 C6.35 4 4.7 4 3 4 C2.25042843 7.47147842 2.25042843 7.47147842 2 11 C3.98 11 5.96 11 8 11 C8 11.99 8 12.98 8 14 C2.76124473 14.42940617 2.76124473 14.42940617 0 14 C-2.0625 11.875 -2.0625 11.875 -3 9 C-2.76576872 5.09614534 -2.18666686 3.28000029 0 0 Z " fill="#1B1A19" transform="translate(70,102)"/>
<path d="M0 0 C2.97 0 5.94 0 9 0 C9 0.99 9 1.98 9 3 C7.35 3 5.7 3 4 3 C4 3.99 4 4.98 4 6 C5.65 6 7.3 6 9 6 C9 6.99 9 7.98 9 9 C7.35 9 5.7 9 4 9 C4 10.65 4 12.3 4 14 C2.68 14 1.36 14 0 14 C0 9.38 0 4.76 0 0 Z " fill="#1C1A1A" transform="translate(7,102)"/>
<path d="M0 0 C1.32 0 2.64 0 4 0 C4 4.62 4 9.24 4 14 C2.68 14 1.36 14 0 14 C0 9.38 0 4.76 0 0 Z " fill="#1B1A1A" transform="translate(80,102)"/>
<path d="M0 0 C1.32 0 2.64 0 4 0 C4 4.62 4 9.24 4 14 C2.68 14 1.36 14 0 14 C0 9.38 0 4.76 0 0 Z " fill="#1D1A19" transform="translate(18,102)"/>
<path d="M0 0 C0.99 0 1.98 0 3 0 C3 4.62 3 9.24 3 14 C2.01 14 1.02 14 0 14 C0 9.38 0 4.76 0 0 Z " fill="#1B1A19" transform="translate(155,102)"/>
</svg>
