<?xml version="1.0" encoding="UTF-8"?>
<svg id="Layer_2" data-name="Layer 2" xmlns="http://www.w3.org/2000/svg" viewBox="0 0 360.95 226.56">
  <defs>
    <style>
      .cls-1 {
        fill: #1c1b1a;
        font-family: PlayfairDisplay-Bold, 'Playfair Display';
        font-size: 35.66px;
        font-weight: 700;
      }

      .cls-2 {
        letter-spacing: 0em;
      }

      .cls-3 {
        letter-spacing: -.02em;
      }

      .cls-4 {
        letter-spacing: -.01em;
      }

      .cls-5 {
        letter-spacing: -.02em;
      }

      .cls-6 {
        letter-spacing: -.04em;
      }

      .cls-7 {
        letter-spacing: 0em;
      }

      .cls-8 {
        letter-spacing: 0em;
      }

      .cls-9 {
        letter-spacing: -.01em;
      }
    </style>
  </defs>
  <g id="Layer_1-2" data-name="Layer 1">
    <g>
      <g>
        <path d="M168.97,44.09c-.45,2.56-4.05,3.13-4.56-.02-.8-4.89-.03-18.24,1.23-23.17,1.57-6.15,7.07-8.08,12.87-6.21,7.77,2.51,5.73,8.84,7.3,15.23-5.27,2.23-6.37,6.39-3.11,11.09-2.22,1.58-3.71,4-4.46,6.63l-3.93,29.32c-.03.35.17.53.39.77.17.18,3.99,2.57,4.22,2.65,1.13.38,2.27.18,3.42.21l1.14-12.98c-3.37.31-1.23-2.92-1.52-4.97-1.92.28-2.88-.59-3.07-2.48s.45-8.16.82-10.27c1.53-8.59,9.3-12.06,13.51-3.3,2.74-3.48,10.1-10.57,10.86-14.74.07-.37.33-1.76-.34-1.68-2.58,4.87-5.66,9.63-9.75,13.36l-2.8-3.24c3.44-4.4,1.76-8.62-3.1-10.75.75-6.35,1.09-13.22,8.37-15.23,5.68-1.57,11.17,1.2,12.44,7.06.54,2.47,1.05,10.05.34,12.22-.53,1.62-2.94,3.61-3.2,5.2-.25,1.51.19,5.5.36,7.23.56,5.61,2.04,11.19,2.68,16.81l-2.82.25-.57.57.3,14.11c1.29.39,2.59,2.62,3.47,3.02,1.49.68,3.77-.33,5.34.58-1.12-4.19,1.37-8.48,2.12-12.59.6-3.26.31-5.88.54-9.01.6-8.32,1.32-16.66,1.54-25.01-.78.75-1.48,2.78-1.72,3.81-.52,2.16-.69,4.49-.94,6.7-.33,2.87.71,6.77-3.95,5.18-.4-.25-.57-.95-.61-1.4-.23-2.38.78-9.06,1.3-11.63.68-3.38,3.26-11.14,5.54-13.56,3.28-3.47,8.95-3.64,12.05.19s1.31,7.75,2.27,11.48c.77,2.98,6.02,9.04,6.23,11.32.05.6-.44,1.28-.86,1.66-2.97,2.68-4.69-4.42-7.07-5.16-.02,5.86.7,10.6,1.74,16.21,1.28,6.88-.24,13.4.53,20.1.59.47,1.23.73,1.74,1.32,1.1,1.26.04,1.97,3.25,1.52-.17-4.9,2.1-9.35,2.95-14.05.71-3.93,1.19-9.69.86-13.64-.33-3.89-1.75-8.21-1.9-12.23-.23-6.23,3.5-17.65,11.73-14.41,5.06,1.99,2.6,10.63,3.64,14.7.66,2.6,6.63,5.18,5.47,8.71-1.08,3.29-1.25,6.48-1.38,10.09-.27,7.72.65,15.41.4,23.13l2.67.38c.71-5.83,3.49-12.17,2.66-18.12-.22-1.57-1.17-2.98-1.16-4.99.02-2.56.79-7.92,1.45-10.43,1.35-5.12,9.05-15.36,12.79-6.45,1.68,4.02-.75,6.09.11,9.44,1.11,4.29,5.99,5,6.6,9.06l.02,26.95c-10.01,9.55-20.92,18.14-31.89,26.56l-6.23,3.89h16.24c9.5,0,21.56,10.87,30.55,13.77,6.2,2,13.09,1.8,19.38,3.16,10.81,2.32,7.7,11.62-1.13,13.54-10.81,2.36-22.81-4.44-33.71-3.72l17.95,4.78c9.53,2.76,27.51,3.34,25.98-10.89,1.96.06,3.85-.69,5.61-1.46,6.42-2.82,20.86-12.39,27.05-11.9,4.54.36,7.16,3.73,4.95,8-7.46,5.37-14.7,11.07-22.21,16.38-6.61,4.67-12.16,9.2-19.99,11.72-9.57,3.08-19.55,5.04-29.21,7.84-20.78-1.92-42.04-20.9-63.34-13.29-14.64,5.23-16.68,13.59-34.81,11.7-27.74-2.88-55.44-18.35-80.58-29.43-33.21-14.65-65.89-24.97-102.45-27.43-2.04-.14-9.52,1.09-7.09-2.9,1.88-3.08,24.12-9.94,28.62-11.29l.46-2.76-1.37-1.01c-.26,1.71-.46,3.13-2.3,3.81-1.62.59-7.22,1.66-6.97-1.26.21-2.45,4.53-1.34,5.1-2.14.26-3.33-1.95-3.77-.15-7.41.82-1.65,6.67-6.52,8.32-6.96,6.61-1.76,4.24,4.16,5.15,7.1.56,1.83,6.27,4.69,3.04,6.81-2.66,1.74-4.56-3.55-6.23-5.06l-.92-.18-1.7,2.05c1.92,1.66,2.52,3.68,1.06,5.91l16.81-4.2c-2.3-3.83,2.51-7.49,3.02-11.3.42-3.09.25-6.93.41-10.09-1.19.76-.84,4.14-1.9,4.78-3.64,2.2-1.91-4.82-1.1-6.45.53-1.06,5.57-6.44,6.54-6.83.8-.33,1.5-.39,2.35-.27,3.7.49,2.19,3.87,2.61,6.58.29,1.9,3.2,5.82,2.24,6.99-1.62,1.44-2.02-.02-3.09-.98-.05,4.68,2.76,8.95,1.92,13.72.87,1.29,8.62-.97,10.3-1.12-.2-.5-.65-.73-.76-1.35-.45-2.5,3.82-10.92,3.82-14.88v-12.8c-1.59.98-1.74,4.98-2.68,5.91-1.29,1.28-2.99.04-3.01-1.51,0-.77,1.75-5.55,2.19-6.57,1.65-3.83,5.18-10.81,10.37-7.55,4.1,2.57,1.87,6.92,2.86,10.13.5,1.61,4.66,4.17,4.67,5.52-1.48,3.55-3.46.17-5.6-.57-.23,4.17,1.48,8.09,2.19,12.14,1.14,6.52-1.17,10.24,8.13,8.11.07-.99-.39-1.8-.36-2.8.12-3.35,2.83-9.43,3.62-13.23,1.57-7.53,1.24-14.16.94-21.79-.35-.02-.76,1.99-.76,2.1v6.88c0,.26-.8,1.5-.82,2.05-2.56.52-2.84-.57-3.02-2.8-.32-4,1.32-13.44,3.37-16.9,2.19-3.71,8.08-3.93,10.78-.69,2.56,3.08,1.96,7.72,2.76,11.37.46,2.08,4.93,9.61.82,9.82-2.51.13-1.12-1.74-2.83-1.89l1.99,22.65c1.58,3.12,4.84,3.21,7.94,2.56.08-.06-.63-1.02-.7-1.43-.51-2.75,3.01-14.53,3.64-18.36,1.15-7.02,1.41-13.6.88-20.7-.39-.11-.76,1.62-.76,1.72v9.17c0,1.16-3.44,4.06-3.84.02-.69-6.96.37-14.94,3.78-21.1,2.99-5.41,10-6.29,12.58-.22,1.39,3.26,3.41,17.1,3.54,20.94.12,3.49-3.09,2.94-4.59.55l2.35,25.34,3.64,2.87,4.7-.32,1.15-30.94c-.18-.2-3.34,2.04-4.12-.66-.41-1.4-.21-8.37-.1-10.25.21-3.55,1.38-11.85,3.46-14.49,2.73-3.46,7.06-4.08,10.66-1.51,3.9,2.78,3.08,8.01,3.94,12.1.63,2.99,3.42,10.64,2.88,13.01-.22.97-1.3,2.01-2.32,1.75-.29-.08-1.69-1.73-1.8-.9l.39,27.88c.09.49,3.37,3.26,3.62,3.26h6.3c-.47-1.47-.43-2.87-.38-4.39.45-12.72,2.96-25.36,1.54-38.22l-.78-6.67c-.46,3.72.62,8.89,0,12.42ZM146.05,45.24c.3-2.96-.22-6.35,0-9.36h-.38c.38.82-.39,2.07-.39,2.48v8.4c0,.09-.56.42-.38.57h.76c-.3-.78.33-1.6.38-2.1ZM201.82,44.29c-.68-.15-.94.35-1.34.75-2.33,2.31-4.07,5.54-7.35,6.67l2.97,15.68c-3.75.4-2.72-.07-2.66,2.66.04,1.96-.59,7.37.75,8.42.65.5,5.1,2.54,5.73,2.1l-.38-17.19-2.89-.36-1.7-10.11c2.72-2.39,6.4-4.81,6.88-8.62ZM254.53,48.11l-.76.23c-.07,1.74-1.5,4.43-1.41,6.01.16,2.89,3,7.79,3.31,11.9.23,2.92-1.13,13.91-.18,15.46.35.57,2.15,1.02,2.07,2.44l1.17.24-.78-31.12-3.43-5.17ZM153.31,81.34l-.75-23.13-.77-1.32c-.01,7.77-1.85,15.56-1.33,23.29.67,1.08,1.62,1.31,2.86,1.16ZM225.13,57.85c-.28,1.97.2,4.45,0,6.49l-4.18,13.39,2.65,3.81,4.21.18c-.76-1.91-.03-3.4.02-5.14.19-6.88-.25-13.02-1.93-19.69-.38-.14-.74.8-.76.95ZM283.58,87.45v-22.35c-2.2-2.06-5.3-3.35-6.5-6.3l-1.93,5.92,3.04,10.35.42,11.99,4.97.38ZM129.24,59.95c-1.15-.19-.61.28-.77.93-1.6,6.47-2.85,13.06-4.45,19.53l2.72,2.3,4.41-.23-1.91-22.53ZM249.58,83.63c-.7-5.7,1.37-12.51-.19-17.96-.1-.36-.46-1.55-.95-1.52l-4.1,16.64c2.18.99,2.63,3.45,5.24,2.85ZM106.71,84.39c-.78-5.98-.52-12.1-1.64-18.03-.08-.42-.08-1.52-.64-1.45l-4.53,18.46c1.62,2.61,4.34,1.14,6.82,1.02ZM189.22,67.97h-1.14c.21,2.93-1.76,8.32-1.37,10.91.04.28.9,1.18,1.16,1.34,2.71,1.61,1.38-1.13,1.34-2.49-.11-3.24.12-6.52.01-9.76ZM80.35,74.08c.42,3.09-4.54,11.5-4.23,13.55.07.46.17.77.65.93.69.23,6.43-.73,6.53-1.28-1.05-4.16-.04-9.81-2.96-13.2ZM272.88,85.35c-.06-2.67,0-5.35,0-8.02,0-.18-.98-3.09-1.52-3.25-.49,3.93-1.58,7.8-3.06,11.46l4.4.76c.94-.59.19-.79.18-.94ZM58.55,92.4c.39-.4.15-9.99-1.89-10.68.04,3.95-3.16,6.86-4.24,10.47,1.93,1.71,3.9.3,6.12.21Z"/>
        <path d="M343.94,125.27c0,2.58-.83,3.39-2.71,4.74-2.73,1.95-12.29,6.91-15.49,8.2-.83.33-3.46,1.14-4.17,1.04-.23-.03-2.87-2.06-3.85-2.47-5.93-2.46-14.9-2-21.45-3.76-4.41-1.19-8.85-3.92-12.65-6.4-.13-1.25,3.73-1.91,4.81-2.42,1.84-.87,4.41-3.45,6.13-3.8,5.11-1.05,12.79,1.63,17.86.67.85-.16,3.09-2.19,4.52-2.74,4.75-1.8,19.03-2.38,23.45,0,.83.45,1.24,1.19,2.02,1.61-.12-11.47,17.62-9.7,13.78,2.12-1.71,5.25-8.25,7.43-12.24,3.23ZM331.71,126.04c-2.1.63-3.92,1.92-6.03,2.56-1.76.54-3.13.6-4.86.87-.57.09-1.18.03-1.33.76,4.21-.06,9.09-1.31,12.22-4.19ZM305.35,127.57c-2.92-.31-5.82-.96-8.78-.76l7.07,1.14,1.71-.37Z"/>
        <path d="M199.44.04c4.9-.56,7.31,4.83,5.51,8.98-2.95,6.77-13.57,3.8-10.79-5.06.61-1.93,3.36-3.7,5.28-3.92Z"/>
        <circle cx="176.29" cy="6.78" r="6.07"/>
        <path d="M137.26,15.26l-3.82,1.53c7.53,11.22-11.34,14.86-6.88,1.14l-1.15.22c-.11.81.39,5.12-.57,5.12-1.43-.77.01-5.15-.19-5.34l-2.29-.58c2.96-1.18,6.02-3.44,9.31-3.2,1.76.13,3.77.99,5.58,1.11Z"/>
        <path d="M225.41,8.85c6.1-1.11,9.16,6.95,3.68,10.17-7.4,4.34-11.45-8.76-3.68-10.17Z"/>
        <path d="M150.91,10.37c9.01-1.86,8.52,11.91-.06,10.58-5.46-.84-5.09-9.52.06-10.58Z"/>
        <circle cx="253.8" cy="22.15" r="4.97"/>
        <path d="M105.1,24.89c6.15-.67,6.91,8.66,2.1,9.77-7.08,1.63-8.58-9.05-2.1-9.77Z"/>
        <circle cx="282.06" cy="38.98" r="4.64"/>
        <path d="M78.56,39.83c4.52-4.26,10.37,2.75,6.34,6.91-4.3,4.44-10.53-2.96-6.34-6.91Z"/>
        <circle cx="59.53" cy="58.56" r="4.45"/>
        <circle cx="186.96" cy="36.48" r="4.38"/>
        <circle cx="37.45" cy="77.27" r="4.38"/>
      </g>
      <text class="cls-1" transform="translate(14.07 217.89)"><tspan x="0" y="0">FI</tspan><tspan class="cls-4" x="34.52" y="0">N</tspan><tspan class="cls-3" x="59.8" y="0">A</tspan><tspan class="cls-2" x="82.87" y="0">N</tspan><tspan class="cls-7" x="108.37" y="0">CI</tspan><tspan class="cls-3" x="146.92" y="0">A</tspan><tspan class="cls-9" x="169.99" y="0">L</tspan><tspan class="cls-6" x="191.28" y="0"> </tspan><tspan class="cls-3" x="198.19" y="0">A</tspan><tspan class="cls-5" x="221.27" y="0">D</tspan><tspan class="cls-7" x="248.12" y="0">V</tspan><tspan class="cls-8" x="271.94" y="0">I</tspan><tspan class="cls-7" x="285.06" y="0">CE</tspan></text>
    </g>
  </g>
</svg>